<svg width="28" height="24" viewBox="0 0 28 24" fill="none" xmlns="http://www.w3.org/2000/svg">
<path d="M0.666687 1.99998C0.666687 1.55795 0.842282 1.13403 1.15484 0.821469C1.4674 0.508908 1.89133 0.333313 2.33335 0.333313H25.6667C26.1087 0.333313 26.5326 0.508908 26.8452 0.821469C27.1578 1.13403 27.3333 1.55795 27.3333 1.99998C27.3333 2.44201 27.1578 2.86593 26.8452 3.17849C26.5326 3.49105 26.1087 3.66665 25.6667 3.66665H2.33335C1.89133 3.66665 1.4674 3.49105 1.15484 3.17849C0.842282 2.86593 0.666687 2.44201 0.666687 1.99998Z" fill="white"/>
<path d="M0.666687 22C0.666687 21.558 0.842282 21.134 1.15484 20.8215C1.4674 20.5089 1.89133 20.3333 2.33335 20.3333H25.6667C26.1087 20.3333 26.5326 20.5089 26.8452 20.8215C27.1578 21.134 27.3333 21.558 27.3333 22C27.3333 22.442 27.1578 22.8659 26.8452 23.1785C26.5326 23.4911 26.1087 23.6666 25.6667 23.6666H2.33335C1.89133 23.6666 1.4674 23.4911 1.15484 23.1785C0.842282 22.8659 0.666687 22.442 0.666687 22Z" fill="white"/>
<path d="M12.3334 10.3333C11.8913 10.3333 11.4674 10.5089 11.1548 10.8215C10.8423 11.134 10.6667 11.558 10.6667 12C10.6667 12.442 10.8423 12.8659 11.1548 13.1785C11.4674 13.4911 11.8913 13.6666 12.3334 13.6666H25.6667C26.1087 13.6666 26.5326 13.4911 26.8452 13.1785C27.1578 12.8659 27.3334 12.442 27.3334 12C27.3334 11.558 27.1578 11.134 26.8452 10.8215C26.5326 10.5089 26.1087 10.3333 25.6667 10.3333H12.3334Z" fill="white"/>
</svg>
